<svg xmlns="http://www.w3.org/2000/svg" width="16.823" height="17.938" viewBox="0 0 16.823 17.938">
    <path id="Form_715" data-name="Form 715" d="M1146.33,8250.58a1.272,1.272,0,1,1,1.267,1.383A1.33,1.33,0,0,1,1146.33,8250.58Zm-9.258,0a1.272,1.272,0,1,1,1.267,1.383A1.331,1.331,0,0,1,1137.072,8250.58Zm1.622-2.694a2.4,2.4,0,0,1-2.288-2.3l-.74-9.578-1.079-.2a.893.893,0,0,1-.669-1.034.836.836,0,0,1,.946-.73h0l1.707.322a.873.873,0,0,1,.676.808l.177,2.3,11.5.015.052.224.035-.224.07.007a1.878,1.878,0,0,1,1.262.82,2.224,2.224,0,0,1,.361,1.553l-.778,5.87a2.386,2.386,0,0,1-2.274,2.151Zm-.653-2.449a.679.679,0,0,0,.654.66h8.959a.686.686,0,0,0,.651-.618l.78-5.869a.321.321,0,0,0-.053-.227.279.279,0,0,0-.182-.121l-.753.006-10.53-.009Zm6.02-2.87a.9.9,0,0,1,0-1.789h2.276a.9.9,0,0,1,0,1.789Z" transform="translate(-1133.905 -8234.025)" fill="#85a3bb"/>
  </svg>
  