<svg width="18" height="18" viewBox="0 0 18 18" fill="none" xmlns="http://www.w3.org/2000/svg">
<path d="M0.666687 2.66669C0.666687 1.56212 1.56212 0.666687 2.66669 0.666687H6.16669C7.27126 0.666687 8.16669 1.56212 8.16669 2.66669V4.50002C8.16669 5.60459 7.27126 6.50002 6.16669 6.50002H2.66669C1.56212 6.50002 0.666687 5.60459 0.666687 4.50002V2.66669Z" fill="#196EB8"/>
<path opacity="0.4" d="M0.666687 10.1667C0.666687 9.06212 1.56212 8.16669 2.66669 8.16669H6.16669C7.27126 8.16669 8.16669 9.06212 8.16669 10.1667V15.3334C8.16669 16.4379 7.27126 17.3334 6.16669 17.3334H2.66669C1.56212 17.3334 0.666687 16.4379 0.666687 15.3334V10.1667Z" fill="#196EB8"/>
<path opacity="0.4" d="M9.83337 2.66669C9.83337 1.56212 10.7288 0.666687 11.8334 0.666687H15.3334C16.4379 0.666687 17.3334 1.56212 17.3334 2.66669V7.83335C17.3334 8.93792 16.4379 9.83335 15.3334 9.83335H11.8334C10.7288 9.83335 9.83337 8.93792 9.83337 7.83335V2.66669Z" fill="#196EB8"/>
<path d="M9.83337 13.5C9.83337 12.3954 10.7288 11.5 11.8334 11.5H15.3334C16.4379 11.5 17.3334 12.3954 17.3334 13.5V15.3333C17.3334 16.4379 16.4379 17.3333 15.3334 17.3333H11.8334C10.7288 17.3333 9.83337 16.4379 9.83337 15.3333V13.5Z" fill="#196EB8"/>
</svg>
