<svg xmlns="http://www.w3.org/2000/svg" width="18.655" height="9.245" viewBox="0 0 18.655 9.245">
  <g id="Group_3090" data-name="Group 3090" transform="translate(-1354.146 -408.66)">
    <path id="Path_1368" data-name="Path 1368" d="M1364.427,414.515a9.173,9.173,0,0,0,2.579-.652.618.618,0,0,1,.829.176c.687.738,1.418,1.435,2.118,2.135l1.377-1.38-2.043-2.041a18.165,18.165,0,0,0,3.514-2.8l-1.4-1.288a.259.259,0,0,0-.045.027c-.048.047-.1.1-.143.142a15.1,15.1,0,0,1-4.477,3.089,7.614,7.614,0,0,1-5.549.365,13.165,13.165,0,0,1-4.321-2.444c-.455-.374-.885-.777-1.33-1.171l-1.391,1.28a18.277,18.277,0,0,0,3.531,2.815l-2.05,2.038,1.37,1.37c.758-.758,1.534-1.526,2.3-2.306a.328.328,0,0,1,.417-.091c.51.188,1.027.36,1.551.5.407.112.827.171,1.257.257V417.9h1.906Z" transform="translate(0 0)" fill="#a9a9a9"/>
    <path id="Path_1369" data-name="Path 1369" d="M1364.427,414.515v3.39h-1.906v-3.369c-.43-.086-.851-.146-1.257-.257-.524-.144-1.042-.315-1.551-.5a.328.328,0,0,0-.417.091c-.765.779-1.54,1.547-2.3,2.306l-1.37-1.37,2.05-2.038a18.277,18.277,0,0,1-3.531-2.815l1.391-1.28c.445.394.875.8,1.33,1.171a13.165,13.165,0,0,0,4.321,2.444,7.614,7.614,0,0,0,5.549-.365,15.1,15.1,0,0,0,4.477-3.089c.048-.047.1-.1.143-.142a.259.259,0,0,1,.045-.027l1.4,1.288a18.165,18.165,0,0,1-3.514,2.8l2.043,2.041-1.377,1.38c-.7-.7-1.431-1.4-2.118-2.135a.618.618,0,0,0-.829-.176A9.173,9.173,0,0,1,1364.427,414.515Z" transform="translate(0 0)" fill="#a9a9a9"/>
  </g>
</svg>
