<svg width="20" height="20" viewBox="0 0 20 20" fill="none" xmlns="http://www.w3.org/2000/svg">
<path d="M5.83333 12.5H6.25C6.94036 12.5 7.5 11.9404 7.5 11.25V10.4167C7.5 9.72633 8.05964 9.16669 8.75 9.16669C9.44036 9.16669 10 9.72633 10 10.4167V12.9167C10 13.607 10.5596 14.1667 11.25 14.1667C11.9404 14.1667 12.5 13.607 12.5 12.9167C12.5 12.2263 13.0596 11.6667 13.75 11.6667H14.1667M17.5 8.45863V14.9724C17.5 16.8286 16.0076 18.3334 14.1667 18.3334H5.83333C3.99238 18.3334 2.5 16.8286 2.5 14.9724V8.45863C2.5 7.4495 2.9497 6.49377 3.72488 5.85546L7.89155 2.42448C9.11859 1.41409 10.8814 1.41409 12.1084 2.42447L16.2751 5.85546C17.0503 6.49377 17.5 7.4495 17.5 8.45863Z" stroke="#7A8C9D" stroke-width="1.5" stroke-linecap="round" stroke-linejoin="round"/>
</svg>
