<svg width="20" height="21" viewBox="0 0 20 21" fill="none" xmlns="http://www.w3.org/2000/svg">
<g id="trash">
<g id="Vector 304" opacity="0.4">
<path d="M12.75 20.75H6.75C4.54086 20.75 2.75 18.9591 2.75 16.75V3.75H16.75V16.75C16.75 18.9591 14.9591 20.75 12.75 20.75Z" fill="#FF3B30"/>
</g>
<path id="Vector 305 (Stroke)" fill-rule="evenodd" clip-rule="evenodd" d="M11.75 8C12.1642 8 12.5 8.33579 12.5 8.75L12.5 14.75C12.5 15.1642 12.1642 15.5 11.75 15.5C11.3358 15.5 11 15.1642 11 14.75L11 8.75C11 8.33579 11.3358 8 11.75 8Z" fill="#FF3B30"/>
<path id="Vector 306 (Stroke)" fill-rule="evenodd" clip-rule="evenodd" d="M7.75 8C8.16421 8 8.5 8.33579 8.5 8.75L8.5 14.75C8.5 15.1642 8.16421 15.5 7.75 15.5C7.33579 15.5 7 15.1642 7 14.75L7 8.75C7 8.33579 7.33579 8 7.75 8Z" fill="#FF3B30"/>
<path id="Rectangle 91 (Stroke)" fill-rule="evenodd" clip-rule="evenodd" d="M6.53223 1.22457C7.04226 0.459528 7.9009 0 8.82037 0H10.6796C11.5991 0 12.4577 0.459528 12.9678 1.22457L14.1514 3H18.75C19.1642 3 19.5 3.33579 19.5 3.75C19.5 4.16421 19.1642 4.5 18.75 4.5H0.75C0.335786 4.5 0 4.16421 0 3.75C0 3.33579 0.335786 3 0.75 3H5.34861L6.53223 1.22457Z" fill="#FF3B30"/>
</g>
</svg>
