<svg width="22" height="22" viewBox="0 0 22 22" fill="none" xmlns="http://www.w3.org/2000/svg">
<g id="edit rectangle">
<path id="Vector 2501 (Stroke)" opacity="0.4" fill-rule="evenodd" clip-rule="evenodd" d="M5 1.75C3.20507 1.75 1.75 3.20507 1.75 5V17C1.75 18.7949 3.20507 20.25 5 20.25H17C18.7949 20.25 20.25 18.7949 20.25 17V11C20.25 10.5858 20.5858 10.25 21 10.25C21.4142 10.25 21.75 10.5858 21.75 11V17C21.75 19.6234 19.6234 21.75 17 21.75H5C2.37665 21.75 0.25 19.6234 0.25 17V5C0.25 2.37665 2.37665 0.25 5 0.25H11C11.4142 0.25 11.75 0.585786 11.75 1C11.75 1.41421 11.4142 1.75 11 1.75H5Z" fill="#FF9500"/>
<path id="Vector" d="M8.15467 14.9895L11.1583 14.5604C11.5916 14.4985 11.9931 14.2978 12.3025 13.9883L18.9773 7.3136C18.9773 7.3136 17.547 7.3136 16.1167 5.8833C14.6864 4.453 14.6864 3.02271 14.6864 3.02271L8.01164 9.69742C7.70217 10.0069 7.50142 10.4084 7.43952 10.8417L7.01044 13.8453C6.91508 14.5128 7.4872 15.0849 8.15467 14.9895Z" fill="#FF9500"/>
<path id="Vector_2" opacity="0.4" d="M20.4075 3.02275L18.9772 1.59245C18.1872 0.802517 16.9065 0.802517 16.1166 1.59245L14.6863 3.02275C14.6863 3.02275 14.6863 4.45305 16.1166 5.88334C17.5469 7.31364 18.9772 7.31364 18.9772 7.31364L20.4075 5.88334C21.1974 5.09341 21.1974 3.81268 20.4075 3.02275Z" fill="#FF9500"/>
</g>
</svg>
