<svg width="20" height="20" viewBox="0 0 20 20" fill="none" xmlns="http://www.w3.org/2000/svg">
<ellipse cx="10" cy="14.1667" rx="0.833333" ry="0.833333" fill="#28303F"/>
<path d="M7.50002 7.5C7.50002 6.11929 8.61931 5 10 5C11.3807 5 12.5 6.11929 12.5 7.5C12.5 8.59415 11.7971 9.52412 10.8183 9.86302C10.3834 10.0136 10 10.3731 10 10.8333V11.6667M9.16669 2.5H10.8334C14.9755 2.5 18.3334 5.85786 18.3334 10C18.3334 14.1421 14.9755 17.5 10.8334 17.5H5.00002C3.15907 17.5 1.66669 16.0076 1.66669 14.1667V10C1.66669 5.85786 5.02455 2.5 9.16669 2.5Z" stroke="#7A8C9D" stroke-width="1.5" stroke-linecap="round" stroke-linejoin="round"/>
</svg>
