<svg xmlns="http://www.w3.org/2000/svg" width="19.475" height="15.066" viewBox="0 0 19.475 15.066">
  <g id="Group_3089" data-name="Group 3089" transform="translate(-1000.759 -729.119)">
    <path id="Path_1366" data-name="Path 1366" d="M1020.235,739.507a.775.775,0,0,0-.07.1.757.757,0,0,1-1.349.067c-.227-.372-.434-.76-.689-1.112a8.826,8.826,0,0,0-4.181-3.124,9.848,9.848,0,0,0-4.52-.552,9.518,9.518,0,0,0-4.365,1.565,8.43,8.43,0,0,0-2.688,2.873c-.065.116-.127.233-.2.346a.757.757,0,0,1-1.331-.721,9.536,9.536,0,0,1,1.2-1.818,10.352,10.352,0,0,1,2.491-2.154c.047-.029.092-.063.146-.1-.67-.669-1.332-1.333-2-1.995a.787.787,0,0,1-.261-.753.755.755,0,0,1,1.176-.465,1.61,1.61,0,0,1,.2.176q1.1,1.1,2.2,2.206c.071.071.126.115.242.068a11.343,11.343,0,0,1,3.49-.788v-.2q0-1.607,0-3.214a.744.744,0,0,1,.4-.7.716.716,0,0,1,.758.026.77.77,0,0,1,.36.709c0,1.052,0,2.1,0,3.157v.2c.429.06.848.11,1.265.178a9.932,9.932,0,0,1,2.167.61.254.254,0,0,0,.326-.07c.734-.745,1.475-1.483,2.216-2.221a.764.764,0,1,1,1.092,1.06c-.575.581-1.155,1.158-1.734,1.735-.09.089-.185.173-.288.268.279.19.543.36.8.544a9.867,9.867,0,0,1,2.994,3.434c.048.092.1.184.143.276Z" transform="translate(0 0)" fill="#a9a9a9"/>
    <path id="Path_1367" data-name="Path 1367" d="M1136.71,901.651a3.423,3.423,0,1,1-3.418,3.424A3.434,3.434,0,0,1,1136.71,901.651Zm0,5.325a1.9,1.9,0,1,0-1.895-1.9A1.924,1.924,0,0,0,1136.708,906.976Z" transform="translate(-126.218 -164.312)" fill="#a9a9a9"/>
  </g>
</svg>
